<?xml version="1.0" encoding="utf-8" standalone="no"?>
<!DOCTYPE svg PUBLIC "-//W3C//DTD SVG 1.1//EN"
  "http://www.w3.org/Graphics/SVG/1.1/DTD/svg11.dtd">
<svg xmlns:xlink="http://www.w3.org/1999/xlink" width="720pt" height="432pt" viewBox="0 0 720 432" xmlns="http://www.w3.org/2000/svg" version="1.1">
 <metadata>
  <rdf:RDF xmlns:dc="http://purl.org/dc/elements/1.1/" xmlns:cc="http://creativecommons.org/ns#" xmlns:rdf="http://www.w3.org/1999/02/22-rdf-syntax-ns#">
   <cc:Work>
    <dc:type rdf:resource="http://purl.org/dc/dcmitype/StillImage"/>
    <dc:date>2025-12-05T17:12:45.721196</dc:date>
    <dc:format>image/svg+xml</dc:format>
    <dc:creator>
     <cc:Agent>
      <dc:title>Matplotlib v3.10.7, https://matplotlib.org/</dc:title>
     </cc:Agent>
    </dc:creator>
   </cc:Work>
  </rdf:RDF>
 </metadata>
 <defs>
  <style type="text/css">*{stroke-linejoin: round; stroke-linecap: butt}</style>
 </defs>
 <g id="figure_1">
  <g id="patch_1">
   <path d="M 0 432 
L 720 432 
L 720 0 
L 0 0 
z
" style="fill: #ffffff"/>
  </g>
  <g id="axes_1">
   <g id="patch_2">
    <path d="M 63.29 372.04 
L 693.168646 372.04 
L 693.168646 39.12 
L 63.29 39.12 
z
" style="fill: #ffffff"/>
   </g>
   <g id="patch_3">
    <path d="M 91.920848 347.628936 
L 138.665088 347.628936 
L 138.665088 235.568082 
L 91.920848 235.568082 
z
" clip-path="url(#pf77049a43e)" style="fill: #333333; stroke: #000000; stroke-width: 1.3; stroke-linejoin: miter"/>
   </g>
   <g id="patch_4">
    <path d="M 150.351149 347.628936 
L 197.095389 347.628936 
L 197.095389 237.586926 
L 150.351149 237.586926 
z
" clip-path="url(#pf77049a43e)" style="fill: #333333; stroke: #000000; stroke-width: 1.3; stroke-linejoin: miter"/>
   </g>
   <g id="patch_5">
    <path d="M 208.78145 347.628936 
L 255.525691 347.628936 
L 255.525691 108.93548 
L 208.78145 108.93548 
z
" clip-path="url(#pf77049a43e)" style="fill: #333333; stroke: #000000; stroke-width: 1.3; stroke-linejoin: miter"/>
   </g>
   <g id="patch_6">
    <path d="M 267.211751 347.628936 
L 313.955992 347.628936 
L 313.955992 268.799797 
L 267.211751 268.799797 
z
" clip-path="url(#pf77049a43e)" style="fill: #333333; stroke: #000000; stroke-width: 1.3; stroke-linejoin: miter"/>
   </g>
   <g id="patch_7">
    <path d="M 325.642052 347.628936 
L 372.386293 347.628936 
L 372.386293 281.944115 
L 325.642052 281.944115 
z
" clip-path="url(#pf77049a43e)" style="fill: #333333; stroke: #000000; stroke-width: 1.3; stroke-linejoin: miter"/>
   </g>
   <g id="patch_8">
    <path d="M 384.072353 347.628936 
L 430.816594 347.628936 
L 430.816594 249.044363 
L 384.072353 249.044363 
z
" clip-path="url(#pf77049a43e)" style="fill: #333333; stroke: #000000; stroke-width: 1.3; stroke-linejoin: miter"/>
   </g>
   <g id="patch_9">
    <path d="M 442.502654 347.628936 
L 489.246895 347.628936 
L 489.246895 226.330673 
L 442.502654 226.330673 
z
" clip-path="url(#pf77049a43e)" style="fill: #333333; stroke: #000000; stroke-width: 1.3; stroke-linejoin: miter"/>
   </g>
   <g id="patch_10">
    <path d="M 500.932955 347.628936 
L 547.677196 347.628936 
L 547.677196 279.413346 
L 500.932955 279.413346 
z
" clip-path="url(#pf77049a43e)" style="fill: #333333; stroke: #000000; stroke-width: 1.3; stroke-linejoin: miter"/>
   </g>
   <g id="patch_11">
    <path d="M 559.363256 347.628936 
L 606.107497 347.628936 
L 606.107497 173.384 
L 559.363256 173.384 
z
" clip-path="url(#pf77049a43e)" style="fill: #333333; stroke: #000000; stroke-width: 1.3; stroke-linejoin: miter"/>
   </g>
   <g id="patch_12">
    <path d="M 617.793557 347.628936 
L 664.537798 347.628936 
L 664.537798 268.312303 
L 617.793557 268.312303 
z
" clip-path="url(#pf77049a43e)" style="fill: #333333; stroke: #000000; stroke-width: 1.3; stroke-linejoin: miter"/>
   </g>
   <g id="matplotlib.axis_1">
    <g id="xtick_1">
     <g id="line2d_1">
      <defs>
       <path id="mf8e08591fb" d="M 0 0 
L 0 3.5 
" style="stroke: #000000; stroke-width: 0.8"/>
      </defs>
      <g>
       <use xlink:href="#mf8e08591fb" x="115.292968" y="372.04" style="stroke: #000000; stroke-width: 0.8"/>
      </g>
     </g>
     <g id="text_1">
      <!-- attn_in_proj -->
      <g transform="translate(74.30578 389.677813) scale(0.14 -0.14)">
       <defs>
        <path id="DejaVuSans-61" d="M 2194 1759 
Q 1497 1759 1228 1600 
Q 959 1441 959 1056 
Q 959 750 1161 570 
Q 1363 391 1709 391 
Q 2188 391 2477 730 
Q 2766 1069 2766 1631 
L 2766 1759 
L 2194 1759 
z
M 3341 1997 
L 3341 0 
L 2766 0 
L 2766 531 
Q 2569 213 2275 61 
Q 1981 -91 1556 -91 
Q 1019 -91 701 211 
Q 384 513 384 1019 
Q 384 1609 779 1909 
Q 1175 2209 1959 2209 
L 2766 2209 
L 2766 2266 
Q 2766 2663 2505 2880 
Q 2244 3097 1772 3097 
Q 1472 3097 1187 3025 
Q 903 2953 641 2809 
L 641 3341 
Q 956 3463 1253 3523 
Q 1550 3584 1831 3584 
Q 2591 3584 2966 3190 
Q 3341 2797 3341 1997 
z
" transform="scale(0.015625)"/>
        <path id="DejaVuSans-74" d="M 1172 4494 
L 1172 3500 
L 2356 3500 
L 2356 3053 
L 1172 3053 
L 1172 1153 
Q 1172 725 1289 603 
Q 1406 481 1766 481 
L 2356 481 
L 2356 0 
L 1766 0 
Q 1100 0 847 248 
Q 594 497 594 1153 
L 594 3053 
L 172 3053 
L 172 3500 
L 594 3500 
L 594 4494 
L 1172 4494 
z
" transform="scale(0.015625)"/>
        <path id="DejaVuSans-6e" d="M 3513 2113 
L 3513 0 
L 2938 0 
L 2938 2094 
Q 2938 2591 2744 2837 
Q 2550 3084 2163 3084 
Q 1697 3084 1428 2787 
Q 1159 2491 1159 1978 
L 1159 0 
L 581 0 
L 581 3500 
L 1159 3500 
L 1159 2956 
Q 1366 3272 1645 3428 
Q 1925 3584 2291 3584 
Q 2894 3584 3203 3211 
Q 3513 2838 3513 2113 
z
" transform="scale(0.015625)"/>
        <path id="DejaVuSans-5f" d="M 3263 -1063 
L 3263 -1509 
L -63 -1509 
L -63 -1063 
L 3263 -1063 
z
" transform="scale(0.015625)"/>
        <path id="DejaVuSans-69" d="M 603 3500 
L 1178 3500 
L 1178 0 
L 603 0 
L 603 3500 
z
M 603 4863 
L 1178 4863 
L 1178 4134 
L 603 4134 
L 603 4863 
z
" transform="scale(0.015625)"/>
        <path id="DejaVuSans-70" d="M 1159 525 
L 1159 -1331 
L 581 -1331 
L 581 3500 
L 1159 3500 
L 1159 2969 
Q 1341 3281 1617 3432 
Q 1894 3584 2278 3584 
Q 2916 3584 3314 3078 
Q 3713 2572 3713 1747 
Q 3713 922 3314 415 
Q 2916 -91 2278 -91 
Q 1894 -91 1617 61 
Q 1341 213 1159 525 
z
M 3116 1747 
Q 3116 2381 2855 2742 
Q 2594 3103 2138 3103 
Q 1681 3103 1420 2742 
Q 1159 2381 1159 1747 
Q 1159 1113 1420 752 
Q 1681 391 2138 391 
Q 2594 391 2855 752 
Q 3116 1113 3116 1747 
z
" transform="scale(0.015625)"/>
        <path id="DejaVuSans-72" d="M 2631 2963 
Q 2534 3019 2420 3045 
Q 2306 3072 2169 3072 
Q 1681 3072 1420 2755 
Q 1159 2438 1159 1844 
L 1159 0 
L 581 0 
L 581 3500 
L 1159 3500 
L 1159 2956 
Q 1341 3275 1631 3429 
Q 1922 3584 2338 3584 
Q 2397 3584 2469 3576 
Q 2541 3569 2628 3553 
L 2631 2963 
z
" transform="scale(0.015625)"/>
        <path id="DejaVuSans-6f" d="M 1959 3097 
Q 1497 3097 1228 2736 
Q 959 2375 959 1747 
Q 959 1119 1226 758 
Q 1494 397 1959 397 
Q 2419 397 2687 759 
Q 2956 1122 2956 1747 
Q 2956 2369 2687 2733 
Q 2419 3097 1959 3097 
z
M 1959 3584 
Q 2709 3584 3137 3096 
Q 3566 2609 3566 1747 
Q 3566 888 3137 398 
Q 2709 -91 1959 -91 
Q 1206 -91 779 398 
Q 353 888 353 1747 
Q 353 2609 779 3096 
Q 1206 3584 1959 3584 
z
" transform="scale(0.015625)"/>
        <path id="DejaVuSans-6a" d="M 603 3500 
L 1178 3500 
L 1178 -63 
Q 1178 -731 923 -1031 
Q 669 -1331 103 -1331 
L -116 -1331 
L -116 -844 
L 38 -844 
Q 366 -844 484 -692 
Q 603 -541 603 -63 
L 603 3500 
z
M 603 4863 
L 1178 4863 
L 1178 4134 
L 603 4134 
L 603 4863 
z
" transform="scale(0.015625)"/>
       </defs>
       <use xlink:href="#DejaVuSans-61"/>
       <use xlink:href="#DejaVuSans-74" transform="translate(61.279297 0)"/>
       <use xlink:href="#DejaVuSans-74" transform="translate(100.488281 0)"/>
       <use xlink:href="#DejaVuSans-6e" transform="translate(139.697266 0)"/>
       <use xlink:href="#DejaVuSans-5f" transform="translate(203.076172 0)"/>
       <use xlink:href="#DejaVuSans-69" transform="translate(253.076172 0)"/>
       <use xlink:href="#DejaVuSans-6e" transform="translate(280.859375 0)"/>
       <use xlink:href="#DejaVuSans-5f" transform="translate(344.238281 0)"/>
       <use xlink:href="#DejaVuSans-70" transform="translate(394.238281 0)"/>
       <use xlink:href="#DejaVuSans-72" transform="translate(457.714844 0)"/>
       <use xlink:href="#DejaVuSans-6f" transform="translate(496.578125 0)"/>
       <use xlink:href="#DejaVuSans-6a" transform="translate(557.759766 0)"/>
      </g>
     </g>
    </g>
    <g id="xtick_2">
     <g id="line2d_2">
      <g>
       <use xlink:href="#mf8e08591fb" x="173.723269" y="372.04" style="stroke: #000000; stroke-width: 0.8"/>
      </g>
     </g>
     <g id="text_2">
      <!-- attn_out_proj -->
      <g transform="translate(127.653425 389.677813) scale(0.14 -0.14)">
       <defs>
        <path id="DejaVuSans-75" d="M 544 1381 
L 544 3500 
L 1119 3500 
L 1119 1403 
Q 1119 906 1312 657 
Q 1506 409 1894 409 
Q 2359 409 2629 706 
Q 2900 1003 2900 1516 
L 2900 3500 
L 3475 3500 
L 3475 0 
L 2900 0 
L 2900 538 
Q 2691 219 2414 64 
Q 2138 -91 1772 -91 
Q 1169 -91 856 284 
Q 544 659 544 1381 
z
M 1991 3584 
L 1991 3584 
z
" transform="scale(0.015625)"/>
       </defs>
       <use xlink:href="#DejaVuSans-61"/>
       <use xlink:href="#DejaVuSans-74" transform="translate(61.279297 0)"/>
       <use xlink:href="#DejaVuSans-74" transform="translate(100.488281 0)"/>
       <use xlink:href="#DejaVuSans-6e" transform="translate(139.697266 0)"/>
       <use xlink:href="#DejaVuSans-5f" transform="translate(203.076172 0)"/>
       <use xlink:href="#DejaVuSans-6f" transform="translate(253.076172 0)"/>
       <use xlink:href="#DejaVuSans-75" transform="translate(314.257812 0)"/>
       <use xlink:href="#DejaVuSans-74" transform="translate(377.636719 0)"/>
       <use xlink:href="#DejaVuSans-5f" transform="translate(416.845703 0)"/>
       <use xlink:href="#DejaVuSans-70" transform="translate(466.845703 0)"/>
       <use xlink:href="#DejaVuSans-72" transform="translate(530.322266 0)"/>
       <use xlink:href="#DejaVuSans-6f" transform="translate(569.185547 0)"/>
       <use xlink:href="#DejaVuSans-6a" transform="translate(630.367188 0)"/>
      </g>
     </g>
    </g>
    <g id="xtick_3">
     <g id="line2d_3">
      <g>
       <use xlink:href="#mf8e08591fb" x="232.15357" y="372.04" style="stroke: #000000; stroke-width: 0.8"/>
      </g>
     </g>
     <g id="text_3">
      <!-- class_token -->
      <g transform="translate(191.706695 389.677813) scale(0.14 -0.14)">
       <defs>
        <path id="DejaVuSans-63" d="M 3122 3366 
L 3122 2828 
Q 2878 2963 2633 3030 
Q 2388 3097 2138 3097 
Q 1578 3097 1268 2742 
Q 959 2388 959 1747 
Q 959 1106 1268 751 
Q 1578 397 2138 397 
Q 2388 397 2633 464 
Q 2878 531 3122 666 
L 3122 134 
Q 2881 22 2623 -34 
Q 2366 -91 2075 -91 
Q 1284 -91 818 406 
Q 353 903 353 1747 
Q 353 2603 823 3093 
Q 1294 3584 2113 3584 
Q 2378 3584 2631 3529 
Q 2884 3475 3122 3366 
z
" transform="scale(0.015625)"/>
        <path id="DejaVuSans-6c" d="M 603 4863 
L 1178 4863 
L 1178 0 
L 603 0 
L 603 4863 
z
" transform="scale(0.015625)"/>
        <path id="DejaVuSans-73" d="M 2834 3397 
L 2834 2853 
Q 2591 2978 2328 3040 
Q 2066 3103 1784 3103 
Q 1356 3103 1142 2972 
Q 928 2841 928 2578 
Q 928 2378 1081 2264 
Q 1234 2150 1697 2047 
L 1894 2003 
Q 2506 1872 2764 1633 
Q 3022 1394 3022 966 
Q 3022 478 2636 193 
Q 2250 -91 1575 -91 
Q 1294 -91 989 -36 
Q 684 19 347 128 
L 347 722 
Q 666 556 975 473 
Q 1284 391 1588 391 
Q 1994 391 2212 530 
Q 2431 669 2431 922 
Q 2431 1156 2273 1281 
Q 2116 1406 1581 1522 
L 1381 1569 
Q 847 1681 609 1914 
Q 372 2147 372 2553 
Q 372 3047 722 3315 
Q 1072 3584 1716 3584 
Q 2034 3584 2315 3537 
Q 2597 3491 2834 3397 
z
" transform="scale(0.015625)"/>
        <path id="DejaVuSans-6b" d="M 581 4863 
L 1159 4863 
L 1159 1991 
L 2875 3500 
L 3609 3500 
L 1753 1863 
L 3688 0 
L 2938 0 
L 1159 1709 
L 1159 0 
L 581 0 
L 581 4863 
z
" transform="scale(0.015625)"/>
        <path id="DejaVuSans-65" d="M 3597 1894 
L 3597 1613 
L 953 1613 
Q 991 1019 1311 708 
Q 1631 397 2203 397 
Q 2534 397 2845 478 
Q 3156 559 3463 722 
L 3463 178 
Q 3153 47 2828 -22 
Q 2503 -91 2169 -91 
Q 1331 -91 842 396 
Q 353 884 353 1716 
Q 353 2575 817 3079 
Q 1281 3584 2069 3584 
Q 2775 3584 3186 3129 
Q 3597 2675 3597 1894 
z
M 3022 2063 
Q 3016 2534 2758 2815 
Q 2500 3097 2075 3097 
Q 1594 3097 1305 2825 
Q 1016 2553 972 2059 
L 3022 2063 
z
" transform="scale(0.015625)"/>
       </defs>
       <use xlink:href="#DejaVuSans-63"/>
       <use xlink:href="#DejaVuSans-6c" transform="translate(54.980469 0)"/>
       <use xlink:href="#DejaVuSans-61" transform="translate(82.763672 0)"/>
       <use xlink:href="#DejaVuSans-73" transform="translate(144.042969 0)"/>
       <use xlink:href="#DejaVuSans-73" transform="translate(196.142578 0)"/>
       <use xlink:href="#DejaVuSans-5f" transform="translate(248.242188 0)"/>
       <use xlink:href="#DejaVuSans-74" transform="translate(298.242188 0)"/>
       <use xlink:href="#DejaVuSans-6f" transform="translate(337.451172 0)"/>
       <use xlink:href="#DejaVuSans-6b" transform="translate(398.632812 0)"/>
       <use xlink:href="#DejaVuSans-65" transform="translate(452.917969 0)"/>
       <use xlink:href="#DejaVuSans-6e" transform="translate(514.441406 0)"/>
      </g>
     </g>
    </g>
    <g id="xtick_4">
     <g id="line2d_4">
      <g>
       <use xlink:href="#mf8e08591fb" x="290.583871" y="372.04" style="stroke: #000000; stroke-width: 0.8"/>
      </g>
     </g>
     <g id="text_4">
      <!-- layernorm_1 -->
      <g transform="translate(246.897309 389.677813) scale(0.14 -0.14)">
       <defs>
        <path id="DejaVuSans-79" d="M 2059 -325 
Q 1816 -950 1584 -1140 
Q 1353 -1331 966 -1331 
L 506 -1331 
L 506 -850 
L 844 -850 
Q 1081 -850 1212 -737 
Q 1344 -625 1503 -206 
L 1606 56 
L 191 3500 
L 800 3500 
L 1894 763 
L 2988 3500 
L 3597 3500 
L 2059 -325 
z
" transform="scale(0.015625)"/>
        <path id="DejaVuSans-6d" d="M 3328 2828 
Q 3544 3216 3844 3400 
Q 4144 3584 4550 3584 
Q 5097 3584 5394 3201 
Q 5691 2819 5691 2113 
L 5691 0 
L 5113 0 
L 5113 2094 
Q 5113 2597 4934 2840 
Q 4756 3084 4391 3084 
Q 3944 3084 3684 2787 
Q 3425 2491 3425 1978 
L 3425 0 
L 2847 0 
L 2847 2094 
Q 2847 2600 2669 2842 
Q 2491 3084 2119 3084 
Q 1678 3084 1418 2786 
Q 1159 2488 1159 1978 
L 1159 0 
L 581 0 
L 581 3500 
L 1159 3500 
L 1159 2956 
Q 1356 3278 1631 3431 
Q 1906 3584 2284 3584 
Q 2666 3584 2933 3390 
Q 3200 3197 3328 2828 
z
" transform="scale(0.015625)"/>
        <path id="DejaVuSans-31" d="M 794 531 
L 1825 531 
L 1825 4091 
L 703 3866 
L 703 4441 
L 1819 4666 
L 2450 4666 
L 2450 531 
L 3481 531 
L 3481 0 
L 794 0 
L 794 531 
z
" transform="scale(0.015625)"/>
       </defs>
       <use xlink:href="#DejaVuSans-6c"/>
       <use xlink:href="#DejaVuSans-61" transform="translate(27.783203 0)"/>
       <use xlink:href="#DejaVuSans-79" transform="translate(89.0625 0)"/>
       <use xlink:href="#DejaVuSans-65" transform="translate(148.242188 0)"/>
       <use xlink:href="#DejaVuSans-72" transform="translate(209.765625 0)"/>
       <use xlink:href="#DejaVuSans-6e" transform="translate(249.128906 0)"/>
       <use xlink:href="#DejaVuSans-6f" transform="translate(312.507812 0)"/>
       <use xlink:href="#DejaVuSans-72" transform="translate(373.689453 0)"/>
       <use xlink:href="#DejaVuSans-6d" transform="translate(413.052734 0)"/>
       <use xlink:href="#DejaVuSans-5f" transform="translate(510.464844 0)"/>
       <use xlink:href="#DejaVuSans-31" transform="translate(560.464844 0)"/>
      </g>
     </g>
    </g>
    <g id="xtick_5">
     <g id="line2d_5">
      <g>
       <use xlink:href="#mf8e08591fb" x="349.014172" y="372.04" style="stroke: #000000; stroke-width: 0.8"/>
      </g>
     </g>
     <g id="text_5">
      <!-- layernorm_2 -->
      <g transform="translate(305.32761 389.677813) scale(0.14 -0.14)">
       <defs>
        <path id="DejaVuSans-32" d="M 1228 531 
L 3431 531 
L 3431 0 
L 469 0 
L 469 531 
Q 828 903 1448 1529 
Q 2069 2156 2228 2338 
Q 2531 2678 2651 2914 
Q 2772 3150 2772 3378 
Q 2772 3750 2511 3984 
Q 2250 4219 1831 4219 
Q 1534 4219 1204 4116 
Q 875 4013 500 3803 
L 500 4441 
Q 881 4594 1212 4672 
Q 1544 4750 1819 4750 
Q 2544 4750 2975 4387 
Q 3406 4025 3406 3419 
Q 3406 3131 3298 2873 
Q 3191 2616 2906 2266 
Q 2828 2175 2409 1742 
Q 1991 1309 1228 531 
z
" transform="scale(0.015625)"/>
       </defs>
       <use xlink:href="#DejaVuSans-6c"/>
       <use xlink:href="#DejaVuSans-61" transform="translate(27.783203 0)"/>
       <use xlink:href="#DejaVuSans-79" transform="translate(89.0625 0)"/>
       <use xlink:href="#DejaVuSans-65" transform="translate(148.242188 0)"/>
       <use xlink:href="#DejaVuSans-72" transform="translate(209.765625 0)"/>
       <use xlink:href="#DejaVuSans-6e" transform="translate(249.128906 0)"/>
       <use xlink:href="#DejaVuSans-6f" transform="translate(312.507812 0)"/>
       <use xlink:href="#DejaVuSans-72" transform="translate(373.689453 0)"/>
       <use xlink:href="#DejaVuSans-6d" transform="translate(413.052734 0)"/>
       <use xlink:href="#DejaVuSans-5f" transform="translate(510.464844 0)"/>
       <use xlink:href="#DejaVuSans-32" transform="translate(560.464844 0)"/>
      </g>
     </g>
    </g>
    <g id="xtick_6">
     <g id="line2d_6">
      <g>
       <use xlink:href="#mf8e08591fb" x="407.444473" y="372.04" style="stroke: #000000; stroke-width: 0.8"/>
      </g>
     </g>
     <g id="text_6">
      <!-- mlp_fc1 -->
      <g transform="translate(379.970567 389.677813) scale(0.14 -0.14)">
       <defs>
        <path id="DejaVuSans-66" d="M 2375 4863 
L 2375 4384 
L 1825 4384 
Q 1516 4384 1395 4259 
Q 1275 4134 1275 3809 
L 1275 3500 
L 2222 3500 
L 2222 3053 
L 1275 3053 
L 1275 0 
L 697 0 
L 697 3053 
L 147 3053 
L 147 3500 
L 697 3500 
L 697 3744 
Q 697 4328 969 4595 
Q 1241 4863 1831 4863 
L 2375 4863 
z
" transform="scale(0.015625)"/>
       </defs>
       <use xlink:href="#DejaVuSans-6d"/>
       <use xlink:href="#DejaVuSans-6c" transform="translate(97.412109 0)"/>
       <use xlink:href="#DejaVuSans-70" transform="translate(125.195312 0)"/>
       <use xlink:href="#DejaVuSans-5f" transform="translate(188.671875 0)"/>
       <use xlink:href="#DejaVuSans-66" transform="translate(238.671875 0)"/>
       <use xlink:href="#DejaVuSans-63" transform="translate(273.876953 0)"/>
       <use xlink:href="#DejaVuSans-31" transform="translate(328.857422 0)"/>
      </g>
     </g>
    </g>
    <g id="xtick_7">
     <g id="line2d_7">
      <g>
       <use xlink:href="#mf8e08591fb" x="465.874774" y="372.04" style="stroke: #000000; stroke-width: 0.8"/>
      </g>
     </g>
     <g id="text_7">
      <!-- mlp_fc2 -->
      <g transform="translate(438.400868 389.677813) scale(0.14 -0.14)">
       <use xlink:href="#DejaVuSans-6d"/>
       <use xlink:href="#DejaVuSans-6c" transform="translate(97.412109 0)"/>
       <use xlink:href="#DejaVuSans-70" transform="translate(125.195312 0)"/>
       <use xlink:href="#DejaVuSans-5f" transform="translate(188.671875 0)"/>
       <use xlink:href="#DejaVuSans-66" transform="translate(238.671875 0)"/>
       <use xlink:href="#DejaVuSans-63" transform="translate(273.876953 0)"/>
       <use xlink:href="#DejaVuSans-32" transform="translate(328.857422 0)"/>
      </g>
     </g>
    </g>
    <g id="xtick_8">
     <g id="line2d_8">
      <g>
       <use xlink:href="#mf8e08591fb" x="524.305076" y="372.04" style="stroke: #000000; stroke-width: 0.8"/>
      </g>
     </g>
     <g id="text_8">
      <!-- other -->
      <g transform="translate(505.656638 389.677813) scale(0.14 -0.14)">
       <defs>
        <path id="DejaVuSans-68" d="M 3513 2113 
L 3513 0 
L 2938 0 
L 2938 2094 
Q 2938 2591 2744 2837 
Q 2550 3084 2163 3084 
Q 1697 3084 1428 2787 
Q 1159 2491 1159 1978 
L 1159 0 
L 581 0 
L 581 4863 
L 1159 4863 
L 1159 2956 
Q 1366 3272 1645 3428 
Q 1925 3584 2291 3584 
Q 2894 3584 3203 3211 
Q 3513 2838 3513 2113 
z
" transform="scale(0.015625)"/>
       </defs>
       <use xlink:href="#DejaVuSans-6f"/>
       <use xlink:href="#DejaVuSans-74" transform="translate(61.181641 0)"/>
       <use xlink:href="#DejaVuSans-68" transform="translate(100.390625 0)"/>
       <use xlink:href="#DejaVuSans-65" transform="translate(163.769531 0)"/>
       <use xlink:href="#DejaVuSans-72" transform="translate(225.292969 0)"/>
      </g>
     </g>
    </g>
    <g id="xtick_9">
     <g id="line2d_9">
      <g>
       <use xlink:href="#mf8e08591fb" x="582.735377" y="372.04" style="stroke: #000000; stroke-width: 0.8"/>
      </g>
     </g>
     <g id="text_9">
      <!-- patch_embed -->
      <g transform="translate(535.151783 389.677813) scale(0.14 -0.14)">
       <defs>
        <path id="DejaVuSans-62" d="M 3116 1747 
Q 3116 2381 2855 2742 
Q 2594 3103 2138 3103 
Q 1681 3103 1420 2742 
Q 1159 2381 1159 1747 
Q 1159 1113 1420 752 
Q 1681 391 2138 391 
Q 2594 391 2855 752 
Q 3116 1113 3116 1747 
z
M 1159 2969 
Q 1341 3281 1617 3432 
Q 1894 3584 2278 3584 
Q 2916 3584 3314 3078 
Q 3713 2572 3713 1747 
Q 3713 922 3314 415 
Q 2916 -91 2278 -91 
Q 1894 -91 1617 61 
Q 1341 213 1159 525 
L 1159 0 
L 581 0 
L 581 4863 
L 1159 4863 
L 1159 2969 
z
" transform="scale(0.015625)"/>
        <path id="DejaVuSans-64" d="M 2906 2969 
L 2906 4863 
L 3481 4863 
L 3481 0 
L 2906 0 
L 2906 525 
Q 2725 213 2448 61 
Q 2172 -91 1784 -91 
Q 1150 -91 751 415 
Q 353 922 353 1747 
Q 353 2572 751 3078 
Q 1150 3584 1784 3584 
Q 2172 3584 2448 3432 
Q 2725 3281 2906 2969 
z
M 947 1747 
Q 947 1113 1208 752 
Q 1469 391 1925 391 
Q 2381 391 2643 752 
Q 2906 1113 2906 1747 
Q 2906 2381 2643 2742 
Q 2381 3103 1925 3103 
Q 1469 3103 1208 2742 
Q 947 2381 947 1747 
z
" transform="scale(0.015625)"/>
       </defs>
       <use xlink:href="#DejaVuSans-70"/>
       <use xlink:href="#DejaVuSans-61" transform="translate(63.476562 0)"/>
       <use xlink:href="#DejaVuSans-74" transform="translate(124.755859 0)"/>
       <use xlink:href="#DejaVuSans-63" transform="translate(163.964844 0)"/>
       <use xlink:href="#DejaVuSans-68" transform="translate(218.945312 0)"/>
       <use xlink:href="#DejaVuSans-5f" transform="translate(282.324219 0)"/>
       <use xlink:href="#DejaVuSans-65" transform="translate(332.324219 0)"/>
       <use xlink:href="#DejaVuSans-6d" transform="translate(393.847656 0)"/>
       <use xlink:href="#DejaVuSans-62" transform="translate(491.259766 0)"/>
       <use xlink:href="#DejaVuSans-65" transform="translate(554.736328 0)"/>
       <use xlink:href="#DejaVuSans-64" transform="translate(616.259766 0)"/>
      </g>
     </g>
    </g>
    <g id="xtick_10">
     <g id="line2d_10">
      <g>
       <use xlink:href="#mf8e08591fb" x="641.165678" y="372.04" style="stroke: #000000; stroke-width: 0.8"/>
      </g>
     </g>
     <g id="text_10">
      <!-- pos_embedding -->
      <g transform="translate(585.702709 389.677813) scale(0.14 -0.14)">
       <defs>
        <path id="DejaVuSans-67" d="M 2906 1791 
Q 2906 2416 2648 2759 
Q 2391 3103 1925 3103 
Q 1463 3103 1205 2759 
Q 947 2416 947 1791 
Q 947 1169 1205 825 
Q 1463 481 1925 481 
Q 2391 481 2648 825 
Q 2906 1169 2906 1791 
z
M 3481 434 
Q 3481 -459 3084 -895 
Q 2688 -1331 1869 -1331 
Q 1566 -1331 1297 -1286 
Q 1028 -1241 775 -1147 
L 775 -588 
Q 1028 -725 1275 -790 
Q 1522 -856 1778 -856 
Q 2344 -856 2625 -561 
Q 2906 -266 2906 331 
L 2906 616 
Q 2728 306 2450 153 
Q 2172 0 1784 0 
Q 1141 0 747 490 
Q 353 981 353 1791 
Q 353 2603 747 3093 
Q 1141 3584 1784 3584 
Q 2172 3584 2450 3431 
Q 2728 3278 2906 2969 
L 2906 3500 
L 3481 3500 
L 3481 434 
z
" transform="scale(0.015625)"/>
       </defs>
       <use xlink:href="#DejaVuSans-70"/>
       <use xlink:href="#DejaVuSans-6f" transform="translate(63.476562 0)"/>
       <use xlink:href="#DejaVuSans-73" transform="translate(124.658203 0)"/>
       <use xlink:href="#DejaVuSans-5f" transform="translate(176.757812 0)"/>
       <use xlink:href="#DejaVuSans-65" transform="translate(226.757812 0)"/>
       <use xlink:href="#DejaVuSans-6d" transform="translate(288.28125 0)"/>
       <use xlink:href="#DejaVuSans-62" transform="translate(385.693359 0)"/>
       <use xlink:href="#DejaVuSans-65" transform="translate(449.169922 0)"/>
       <use xlink:href="#DejaVuSans-64" transform="translate(510.693359 0)"/>
       <use xlink:href="#DejaVuSans-64" transform="translate(574.169922 0)"/>
       <use xlink:href="#DejaVuSans-69" transform="translate(637.646484 0)"/>
       <use xlink:href="#DejaVuSans-6e" transform="translate(665.429688 0)"/>
       <use xlink:href="#DejaVuSans-67" transform="translate(728.808594 0)"/>
      </g>
     </g>
    </g>
    <g id="text_11">
     <!-- Tensor Type -->
     <g transform="translate(325.596198 410.655937) scale(0.18 -0.18)">
      <defs>
       <path id="DejaVuSans-54" d="M -19 4666 
L 3928 4666 
L 3928 4134 
L 2272 4134 
L 2272 0 
L 1638 0 
L 1638 4134 
L -19 4134 
L -19 4666 
z
" transform="scale(0.015625)"/>
       <path id="DejaVuSans-20" transform="scale(0.015625)"/>
      </defs>
      <use xlink:href="#DejaVuSans-54"/>
      <use xlink:href="#DejaVuSans-65" transform="translate(44.083984 0)"/>
      <use xlink:href="#DejaVuSans-6e" transform="translate(105.607422 0)"/>
      <use xlink:href="#DejaVuSans-73" transform="translate(168.986328 0)"/>
      <use xlink:href="#DejaVuSans-6f" transform="translate(221.085938 0)"/>
      <use xlink:href="#DejaVuSans-72" transform="translate(282.267578 0)"/>
      <use xlink:href="#DejaVuSans-20" transform="translate(323.380859 0)"/>
      <use xlink:href="#DejaVuSans-54" transform="translate(355.167969 0)"/>
      <use xlink:href="#DejaVuSans-79" transform="translate(400.626953 0)"/>
      <use xlink:href="#DejaVuSans-70" transform="translate(459.806641 0)"/>
      <use xlink:href="#DejaVuSans-65" transform="translate(523.283203 0)"/>
     </g>
    </g>
   </g>
   <g id="matplotlib.axis_2">
    <g id="ytick_1">
     <g id="line2d_11">
      <path d="M 63.29 347.628936 
L 693.168646 347.628936 
" clip-path="url(#pf77049a43e)" style="fill: none; stroke-dasharray: 2.96,1.28; stroke-dashoffset: 0; stroke: #b0b0b0; stroke-opacity: 0.5; stroke-width: 0.8"/>
     </g>
     <g id="line2d_12">
      <defs>
       <path id="md10fe4d61b" d="M 0 0 
L -3.5 0 
" style="stroke: #000000; stroke-width: 0.8"/>
      </defs>
      <g>
       <use xlink:href="#md10fe4d61b" x="63.29" y="347.628936" style="stroke: #000000; stroke-width: 0.8"/>
      </g>
     </g>
     <g id="text_12">
      <!-- 0 -->
      <g transform="translate(47.3825 352.947842) scale(0.14 -0.14)">
       <defs>
        <path id="DejaVuSans-30" d="M 2034 4250 
Q 1547 4250 1301 3770 
Q 1056 3291 1056 2328 
Q 1056 1369 1301 889 
Q 1547 409 2034 409 
Q 2525 409 2770 889 
Q 3016 1369 3016 2328 
Q 3016 3291 2770 3770 
Q 2525 4250 2034 4250 
z
M 2034 4750 
Q 2819 4750 3233 4129 
Q 3647 3509 3647 2328 
Q 3647 1150 3233 529 
Q 2819 -91 2034 -91 
Q 1250 -91 836 529 
Q 422 1150 422 2328 
Q 422 3509 836 4129 
Q 1250 4750 2034 4750 
z
" transform="scale(0.015625)"/>
       </defs>
       <use xlink:href="#DejaVuSans-30"/>
      </g>
     </g>
    </g>
    <g id="ytick_2">
     <g id="line2d_13">
      <path d="M 63.29 279.859408 
L 693.168646 279.859408 
" clip-path="url(#pf77049a43e)" style="fill: none; stroke-dasharray: 2.96,1.28; stroke-dashoffset: 0; stroke: #b0b0b0; stroke-opacity: 0.5; stroke-width: 0.8"/>
     </g>
     <g id="line2d_14">
      <g>
       <use xlink:href="#md10fe4d61b" x="63.29" y="279.859408" style="stroke: #000000; stroke-width: 0.8"/>
      </g>
     </g>
     <g id="text_13">
      <!-- 20 -->
      <g transform="translate(38.475 285.178314) scale(0.14 -0.14)">
       <use xlink:href="#DejaVuSans-32"/>
       <use xlink:href="#DejaVuSans-30" transform="translate(63.623047 0)"/>
      </g>
     </g>
    </g>
    <g id="ytick_3">
     <g id="line2d_15">
      <path d="M 63.29 212.089879 
L 693.168646 212.089879 
" clip-path="url(#pf77049a43e)" style="fill: none; stroke-dasharray: 2.96,1.28; stroke-dashoffset: 0; stroke: #b0b0b0; stroke-opacity: 0.5; stroke-width: 0.8"/>
     </g>
     <g id="line2d_16">
      <g>
       <use xlink:href="#md10fe4d61b" x="63.29" y="212.089879" style="stroke: #000000; stroke-width: 0.8"/>
      </g>
     </g>
     <g id="text_14">
      <!-- 40 -->
      <g transform="translate(38.475 217.408786) scale(0.14 -0.14)">
       <defs>
        <path id="DejaVuSans-34" d="M 2419 4116 
L 825 1625 
L 2419 1625 
L 2419 4116 
z
M 2253 4666 
L 3047 4666 
L 3047 1625 
L 3713 1625 
L 3713 1100 
L 3047 1100 
L 3047 0 
L 2419 0 
L 2419 1100 
L 313 1100 
L 313 1709 
L 2253 4666 
z
" transform="scale(0.015625)"/>
       </defs>
       <use xlink:href="#DejaVuSans-34"/>
       <use xlink:href="#DejaVuSans-30" transform="translate(63.623047 0)"/>
      </g>
     </g>
    </g>
    <g id="ytick_4">
     <g id="line2d_17">
      <path d="M 63.29 144.320351 
L 693.168646 144.320351 
" clip-path="url(#pf77049a43e)" style="fill: none; stroke-dasharray: 2.96,1.28; stroke-dashoffset: 0; stroke: #b0b0b0; stroke-opacity: 0.5; stroke-width: 0.8"/>
     </g>
     <g id="line2d_18">
      <g>
       <use xlink:href="#md10fe4d61b" x="63.29" y="144.320351" style="stroke: #000000; stroke-width: 0.8"/>
      </g>
     </g>
     <g id="text_15">
      <!-- 60 -->
      <g transform="translate(38.475 149.639257) scale(0.14 -0.14)">
       <defs>
        <path id="DejaVuSans-36" d="M 2113 2584 
Q 1688 2584 1439 2293 
Q 1191 2003 1191 1497 
Q 1191 994 1439 701 
Q 1688 409 2113 409 
Q 2538 409 2786 701 
Q 3034 994 3034 1497 
Q 3034 2003 2786 2293 
Q 2538 2584 2113 2584 
z
M 3366 4563 
L 3366 3988 
Q 3128 4100 2886 4159 
Q 2644 4219 2406 4219 
Q 1781 4219 1451 3797 
Q 1122 3375 1075 2522 
Q 1259 2794 1537 2939 
Q 1816 3084 2150 3084 
Q 2853 3084 3261 2657 
Q 3669 2231 3669 1497 
Q 3669 778 3244 343 
Q 2819 -91 2113 -91 
Q 1303 -91 875 529 
Q 447 1150 447 2328 
Q 447 3434 972 4092 
Q 1497 4750 2381 4750 
Q 2619 4750 2861 4703 
Q 3103 4656 3366 4563 
z
" transform="scale(0.015625)"/>
       </defs>
       <use xlink:href="#DejaVuSans-36"/>
       <use xlink:href="#DejaVuSans-30" transform="translate(63.623047 0)"/>
      </g>
     </g>
    </g>
    <g id="ytick_5">
     <g id="line2d_19">
      <path d="M 63.29 76.550823 
L 693.168646 76.550823 
" clip-path="url(#pf77049a43e)" style="fill: none; stroke-dasharray: 2.96,1.28; stroke-dashoffset: 0; stroke: #b0b0b0; stroke-opacity: 0.5; stroke-width: 0.8"/>
     </g>
     <g id="line2d_20">
      <g>
       <use xlink:href="#md10fe4d61b" x="63.29" y="76.550823" style="stroke: #000000; stroke-width: 0.8"/>
      </g>
     </g>
     <g id="text_16">
      <!-- 80 -->
      <g transform="translate(38.475 81.869729) scale(0.14 -0.14)">
       <defs>
        <path id="DejaVuSans-38" d="M 2034 2216 
Q 1584 2216 1326 1975 
Q 1069 1734 1069 1313 
Q 1069 891 1326 650 
Q 1584 409 2034 409 
Q 2484 409 2743 651 
Q 3003 894 3003 1313 
Q 3003 1734 2745 1975 
Q 2488 2216 2034 2216 
z
M 1403 2484 
Q 997 2584 770 2862 
Q 544 3141 544 3541 
Q 544 4100 942 4425 
Q 1341 4750 2034 4750 
Q 2731 4750 3128 4425 
Q 3525 4100 3525 3541 
Q 3525 3141 3298 2862 
Q 3072 2584 2669 2484 
Q 3125 2378 3379 2068 
Q 3634 1759 3634 1313 
Q 3634 634 3220 271 
Q 2806 -91 2034 -91 
Q 1263 -91 848 271 
Q 434 634 434 1313 
Q 434 1759 690 2068 
Q 947 2378 1403 2484 
z
M 1172 3481 
Q 1172 3119 1398 2916 
Q 1625 2713 2034 2713 
Q 2441 2713 2670 2916 
Q 2900 3119 2900 3481 
Q 2900 3844 2670 4047 
Q 2441 4250 2034 4250 
Q 1625 4250 1398 4047 
Q 1172 3844 1172 3481 
z
" transform="scale(0.015625)"/>
       </defs>
       <use xlink:href="#DejaVuSans-38"/>
       <use xlink:href="#DejaVuSans-30" transform="translate(63.623047 0)"/>
      </g>
     </g>
    </g>
    <g id="text_17">
     <!-- Compression Gain (%) -->
     <g transform="translate(30.731563 305.962344) rotate(-90) scale(0.18 -0.18)">
      <defs>
       <path id="DejaVuSans-43" d="M 4122 4306 
L 4122 3641 
Q 3803 3938 3442 4084 
Q 3081 4231 2675 4231 
Q 1875 4231 1450 3742 
Q 1025 3253 1025 2328 
Q 1025 1406 1450 917 
Q 1875 428 2675 428 
Q 3081 428 3442 575 
Q 3803 722 4122 1019 
L 4122 359 
Q 3791 134 3420 21 
Q 3050 -91 2638 -91 
Q 1578 -91 968 557 
Q 359 1206 359 2328 
Q 359 3453 968 4101 
Q 1578 4750 2638 4750 
Q 3056 4750 3426 4639 
Q 3797 4528 4122 4306 
z
" transform="scale(0.015625)"/>
       <path id="DejaVuSans-47" d="M 3809 666 
L 3809 1919 
L 2778 1919 
L 2778 2438 
L 4434 2438 
L 4434 434 
Q 4069 175 3628 42 
Q 3188 -91 2688 -91 
Q 1594 -91 976 548 
Q 359 1188 359 2328 
Q 359 3472 976 4111 
Q 1594 4750 2688 4750 
Q 3144 4750 3555 4637 
Q 3966 4525 4313 4306 
L 4313 3634 
Q 3963 3931 3569 4081 
Q 3175 4231 2741 4231 
Q 1884 4231 1454 3753 
Q 1025 3275 1025 2328 
Q 1025 1384 1454 906 
Q 1884 428 2741 428 
Q 3075 428 3337 486 
Q 3600 544 3809 666 
z
" transform="scale(0.015625)"/>
       <path id="DejaVuSans-28" d="M 1984 4856 
Q 1566 4138 1362 3434 
Q 1159 2731 1159 2009 
Q 1159 1288 1364 580 
Q 1569 -128 1984 -844 
L 1484 -844 
Q 1016 -109 783 600 
Q 550 1309 550 2009 
Q 550 2706 781 3412 
Q 1013 4119 1484 4856 
L 1984 4856 
z
" transform="scale(0.015625)"/>
       <path id="DejaVuSans-25" d="M 4653 2053 
Q 4381 2053 4226 1822 
Q 4072 1591 4072 1178 
Q 4072 772 4226 539 
Q 4381 306 4653 306 
Q 4919 306 5073 539 
Q 5228 772 5228 1178 
Q 5228 1588 5073 1820 
Q 4919 2053 4653 2053 
z
M 4653 2450 
Q 5147 2450 5437 2106 
Q 5728 1763 5728 1178 
Q 5728 594 5436 251 
Q 5144 -91 4653 -91 
Q 4153 -91 3862 251 
Q 3572 594 3572 1178 
Q 3572 1766 3864 2108 
Q 4156 2450 4653 2450 
z
M 1428 4353 
Q 1159 4353 1004 4120 
Q 850 3888 850 3481 
Q 850 3069 1003 2837 
Q 1156 2606 1428 2606 
Q 1700 2606 1854 2837 
Q 2009 3069 2009 3481 
Q 2009 3884 1853 4118 
Q 1697 4353 1428 4353 
z
M 4250 4750 
L 4750 4750 
L 1831 -91 
L 1331 -91 
L 4250 4750 
z
M 1428 4750 
Q 1922 4750 2215 4408 
Q 2509 4066 2509 3481 
Q 2509 2891 2217 2550 
Q 1925 2209 1428 2209 
Q 931 2209 642 2551 
Q 353 2894 353 3481 
Q 353 4063 643 4406 
Q 934 4750 1428 4750 
z
" transform="scale(0.015625)"/>
       <path id="DejaVuSans-29" d="M 513 4856 
L 1013 4856 
Q 1481 4119 1714 3412 
Q 1947 2706 1947 2009 
Q 1947 1309 1714 600 
Q 1481 -109 1013 -844 
L 513 -844 
Q 928 -128 1133 580 
Q 1338 1288 1338 2009 
Q 1338 2731 1133 3434 
Q 928 4138 513 4856 
z
" transform="scale(0.015625)"/>
      </defs>
      <use xlink:href="#DejaVuSans-43"/>
      <use xlink:href="#DejaVuSans-6f" transform="translate(69.824219 0)"/>
      <use xlink:href="#DejaVuSans-6d" transform="translate(131.005859 0)"/>
      <use xlink:href="#DejaVuSans-70" transform="translate(228.417969 0)"/>
      <use xlink:href="#DejaVuSans-72" transform="translate(291.894531 0)"/>
      <use xlink:href="#DejaVuSans-65" transform="translate(330.757812 0)"/>
      <use xlink:href="#DejaVuSans-73" transform="translate(392.28125 0)"/>
      <use xlink:href="#DejaVuSans-73" transform="translate(444.380859 0)"/>
      <use xlink:href="#DejaVuSans-69" transform="translate(496.480469 0)"/>
      <use xlink:href="#DejaVuSans-6f" transform="translate(524.263672 0)"/>
      <use xlink:href="#DejaVuSans-6e" transform="translate(585.445312 0)"/>
      <use xlink:href="#DejaVuSans-20" transform="translate(648.824219 0)"/>
      <use xlink:href="#DejaVuSans-47" transform="translate(680.611328 0)"/>
      <use xlink:href="#DejaVuSans-61" transform="translate(758.101562 0)"/>
      <use xlink:href="#DejaVuSans-69" transform="translate(819.380859 0)"/>
      <use xlink:href="#DejaVuSans-6e" transform="translate(847.164062 0)"/>
      <use xlink:href="#DejaVuSans-20" transform="translate(910.542969 0)"/>
      <use xlink:href="#DejaVuSans-28" transform="translate(942.330078 0)"/>
      <use xlink:href="#DejaVuSans-25" transform="translate(981.34375 0)"/>
      <use xlink:href="#DejaVuSans-29" transform="translate(1076.363281 0)"/>
     </g>
    </g>
   </g>
   <g id="LineCollection_1">
    <path d="M 115.292968 254.834658 
L 115.292968 216.301507 
" clip-path="url(#pf77049a43e)" style="fill: none; stroke: #000000; stroke-width: 1.5"/>
    <path d="M 173.723269 279.701251 
L 173.723269 195.4726 
" clip-path="url(#pf77049a43e)" style="fill: none; stroke: #000000; stroke-width: 1.5"/>
    <path clip-path="url(#pf77049a43e)" style="fill: none; stroke: #000000; stroke-width: 1.5"/>
    <path d="M 290.583871 314.770491 
L 290.583871 222.829103 
" clip-path="url(#pf77049a43e)" style="fill: none; stroke: #000000; stroke-width: 1.5"/>
    <path d="M 349.014172 356.907273 
L 349.014172 206.980957 
" clip-path="url(#pf77049a43e)" style="fill: none; stroke: #000000; stroke-width: 1.5"/>
    <path d="M 407.444473 281.229423 
L 407.444473 216.859303 
" clip-path="url(#pf77049a43e)" style="fill: none; stroke: #000000; stroke-width: 1.5"/>
    <path d="M 465.874774 267.634629 
L 465.874774 185.026718 
" clip-path="url(#pf77049a43e)" style="fill: none; stroke: #000000; stroke-width: 1.5"/>
    <path d="M 524.305076 316.84272 
L 524.305076 241.983972 
" clip-path="url(#pf77049a43e)" style="fill: none; stroke: #000000; stroke-width: 1.5"/>
    <path d="M 582.735377 292.515273 
L 582.735377 54.252727 
" clip-path="url(#pf77049a43e)" style="fill: none; stroke: #000000; stroke-width: 1.5"/>
    <path clip-path="url(#pf77049a43e)" style="fill: none; stroke: #000000; stroke-width: 1.5"/>
   </g>
   <g id="line2d_21">
    <defs>
     <path id="m9f4e406de9" d="M 6 0 
L -6 -0 
" style="stroke: #000000"/>
    </defs>
    <g clip-path="url(#pf77049a43e)">
     <use xlink:href="#m9f4e406de9" x="115.292968" y="254.834658" style="fill: #1f77b4; stroke: #000000"/>
     <use xlink:href="#m9f4e406de9" x="173.723269" y="279.701251" style="fill: #1f77b4; stroke: #000000"/>
     <use xlink:href="#m9f4e406de9" x="290.583871" y="314.770491" style="fill: #1f77b4; stroke: #000000"/>
     <use xlink:href="#m9f4e406de9" x="349.014172" y="356.907273" style="fill: #1f77b4; stroke: #000000"/>
     <use xlink:href="#m9f4e406de9" x="407.444473" y="281.229423" style="fill: #1f77b4; stroke: #000000"/>
     <use xlink:href="#m9f4e406de9" x="465.874774" y="267.634629" style="fill: #1f77b4; stroke: #000000"/>
     <use xlink:href="#m9f4e406de9" x="524.305076" y="316.84272" style="fill: #1f77b4; stroke: #000000"/>
     <use xlink:href="#m9f4e406de9" x="582.735377" y="292.515273" style="fill: #1f77b4; stroke: #000000"/>
    </g>
   </g>
   <g id="line2d_22">
    <g clip-path="url(#pf77049a43e)">
     <use xlink:href="#m9f4e406de9" x="115.292968" y="216.301507" style="fill: #1f77b4; stroke: #000000"/>
     <use xlink:href="#m9f4e406de9" x="173.723269" y="195.4726" style="fill: #1f77b4; stroke: #000000"/>
     <use xlink:href="#m9f4e406de9" x="290.583871" y="222.829103" style="fill: #1f77b4; stroke: #000000"/>
     <use xlink:href="#m9f4e406de9" x="349.014172" y="206.980957" style="fill: #1f77b4; stroke: #000000"/>
     <use xlink:href="#m9f4e406de9" x="407.444473" y="216.859303" style="fill: #1f77b4; stroke: #000000"/>
     <use xlink:href="#m9f4e406de9" x="465.874774" y="185.026718" style="fill: #1f77b4; stroke: #000000"/>
     <use xlink:href="#m9f4e406de9" x="524.305076" y="241.983972" style="fill: #1f77b4; stroke: #000000"/>
     <use xlink:href="#m9f4e406de9" x="582.735377" y="54.252727" style="fill: #1f77b4; stroke: #000000"/>
    </g>
   </g>
   <g id="patch_13">
    <path d="M 63.29 372.04 
L 63.29 39.12 
" style="fill: none; stroke: #000000; stroke-width: 0.8; stroke-linejoin: miter; stroke-linecap: square"/>
   </g>
   <g id="patch_14">
    <path d="M 693.168646 372.04 
L 693.168646 39.12 
" style="fill: none; stroke: #000000; stroke-width: 0.8; stroke-linejoin: miter; stroke-linecap: square"/>
   </g>
   <g id="patch_15">
    <path d="M 63.29 372.04 
L 693.168646 372.04 
" style="fill: none; stroke: #000000; stroke-width: 0.8; stroke-linejoin: miter; stroke-linecap: square"/>
   </g>
   <g id="patch_16">
    <path d="M 63.29 39.12 
L 693.168646 39.12 
" style="fill: none; stroke: #000000; stroke-width: 0.8; stroke-linejoin: miter; stroke-linecap: square"/>
   </g>
   <g id="text_18">
    <!-- vit — Mean Compression Gain (8-bit) -->
    <g transform="translate(193.779323 33.12) scale(0.2 -0.2)">
     <defs>
      <path id="DejaVuSans-76" d="M 191 3500 
L 800 3500 
L 1894 563 
L 2988 3500 
L 3597 3500 
L 2284 0 
L 1503 0 
L 191 3500 
z
" transform="scale(0.015625)"/>
      <path id="DejaVuSans-2014" d="M 313 1978 
L 6088 1978 
L 6088 1528 
L 313 1528 
L 313 1978 
z
" transform="scale(0.015625)"/>
      <path id="DejaVuSans-4d" d="M 628 4666 
L 1569 4666 
L 2759 1491 
L 3956 4666 
L 4897 4666 
L 4897 0 
L 4281 0 
L 4281 4097 
L 3078 897 
L 2444 897 
L 1241 4097 
L 1241 0 
L 628 0 
L 628 4666 
z
" transform="scale(0.015625)"/>
      <path id="DejaVuSans-2d" d="M 313 2009 
L 1997 2009 
L 1997 1497 
L 313 1497 
L 313 2009 
z
" transform="scale(0.015625)"/>
     </defs>
     <use xlink:href="#DejaVuSans-76"/>
     <use xlink:href="#DejaVuSans-69" transform="translate(59.179688 0)"/>
     <use xlink:href="#DejaVuSans-74" transform="translate(86.962891 0)"/>
     <use xlink:href="#DejaVuSans-20" transform="translate(126.171875 0)"/>
     <use xlink:href="#DejaVuSans-2014" transform="translate(157.958984 0)"/>
     <use xlink:href="#DejaVuSans-20" transform="translate(257.958984 0)"/>
     <use xlink:href="#DejaVuSans-4d" transform="translate(289.746094 0)"/>
     <use xlink:href="#DejaVuSans-65" transform="translate(376.025391 0)"/>
     <use xlink:href="#DejaVuSans-61" transform="translate(437.548828 0)"/>
     <use xlink:href="#DejaVuSans-6e" transform="translate(498.828125 0)"/>
     <use xlink:href="#DejaVuSans-20" transform="translate(562.207031 0)"/>
     <use xlink:href="#DejaVuSans-43" transform="translate(593.994141 0)"/>
     <use xlink:href="#DejaVuSans-6f" transform="translate(663.818359 0)"/>
     <use xlink:href="#DejaVuSans-6d" transform="translate(725 0)"/>
     <use xlink:href="#DejaVuSans-70" transform="translate(822.412109 0)"/>
     <use xlink:href="#DejaVuSans-72" transform="translate(885.888672 0)"/>
     <use xlink:href="#DejaVuSans-65" transform="translate(924.751953 0)"/>
     <use xlink:href="#DejaVuSans-73" transform="translate(986.275391 0)"/>
     <use xlink:href="#DejaVuSans-73" transform="translate(1038.375 0)"/>
     <use xlink:href="#DejaVuSans-69" transform="translate(1090.474609 0)"/>
     <use xlink:href="#DejaVuSans-6f" transform="translate(1118.257812 0)"/>
     <use xlink:href="#DejaVuSans-6e" transform="translate(1179.439453 0)"/>
     <use xlink:href="#DejaVuSans-20" transform="translate(1242.818359 0)"/>
     <use xlink:href="#DejaVuSans-47" transform="translate(1274.605469 0)"/>
     <use xlink:href="#DejaVuSans-61" transform="translate(1352.095703 0)"/>
     <use xlink:href="#DejaVuSans-69" transform="translate(1413.375 0)"/>
     <use xlink:href="#DejaVuSans-6e" transform="translate(1441.158203 0)"/>
     <use xlink:href="#DejaVuSans-20" transform="translate(1504.537109 0)"/>
     <use xlink:href="#DejaVuSans-28" transform="translate(1536.324219 0)"/>
     <use xlink:href="#DejaVuSans-38" transform="translate(1575.337891 0)"/>
     <use xlink:href="#DejaVuSans-2d" transform="translate(1638.960938 0)"/>
     <use xlink:href="#DejaVuSans-62" transform="translate(1675.044922 0)"/>
     <use xlink:href="#DejaVuSans-69" transform="translate(1738.521484 0)"/>
     <use xlink:href="#DejaVuSans-74" transform="translate(1766.304688 0)"/>
     <use xlink:href="#DejaVuSans-29" transform="translate(1805.513672 0)"/>
    </g>
   </g>
  </g>
 </g>
 <defs>
  <clipPath id="pf77049a43e">
   <rect x="63.29" y="39.12" width="629.878646" height="332.92"/>
  </clipPath>
 </defs>
</svg>
